<svg width="369" height="369" viewBox="0 0 369 369" fill="none" xmlns="http://www.w3.org/2000/svg">
<path d="M136.732 237.657L287.462 86.927L356.194 157.265C360.108 161.27 362.065 163.273 362.789 165.574C363.426 167.597 363.414 169.773 362.753 171.789C362.003 174.082 360.022 176.062 356.062 180.022L227.959 308.125C223.999 312.085 222.019 314.065 219.745 314.798C217.744 315.443 215.593 315.43 213.6 314.762C211.335 314.003 209.378 312 205.463 307.995L136.732 237.657Z" fill="#E1E1E1"/>
<path d="M12.1159 211.045C8.20173 207.039 6.24464 205.037 5.52033 202.736C4.8832 200.712 4.89576 198.536 5.55621 196.52C6.30705 194.228 8.28713 192.248 12.2473 188.288L140.35 60.185C144.31 56.2248 146.29 54.2447 148.565 53.5117C150.565 52.8669 152.716 52.8793 154.709 53.5471C156.975 54.3064 158.932 56.3092 162.846 60.3148L231.578 130.652L80.8475 281.383L12.1159 211.045Z" fill="#ADADAD"/>
<line x1="132.82" y1="234.783" x2="234.783" y2="132.82" stroke="url(#paint0_linear_7_26)" stroke-dasharray="2 2"/>
<defs>
<linearGradient id="paint0_linear_7_26" x1="163.565" y1="203.33" x2="235.883" y2="133.952" gradientUnits="userSpaceOnUse">
<stop stop-color="#E1E1E1"/>
<stop offset="1" stop-color="#ADADAD"/>
</linearGradient>
</defs>
</svg>
